<svg width="224" height="160" fill="none" xmlns="http://www.w3.org/2000/svg"><mask id="a" fill="#fff"><path d="M192.985 115.182a43.769 43.769 0 0 0-9.651-2.799 105.787 105.787 0 0 0-12.331-1.483 51.548 51.548 0 0 0 25.224-13.555 51.623 51.623 0 0 0 14.114-24.934 51.67 51.67 0 0 0-1.347-28.626A51.623 51.623 0 0 0 192.6 20.291a51.52 51.52 0 0 0-54.631-6.439 51.581 51.581 0 0 0-21.397 19.04 51.653 51.653 0 0 0-7.953 27.53c0 .86 0 1.708.061 2.55a54.098 54.098 0 0 0-25.341 19.255c-6.366-9.528-14.147-15.9-23.278-19.019-9.808-3.446-30.078-4.3-44.594 14.143-6.372 8.098-3.77 17.637 1.912 22.495a16.063 16.063 0 0 0 22.352-1.448c.211-.218.502-.539.853-.914.52-.563 1.882-2.035 2.42-2.568l.103-.085a7.806 7.806 0 0 1 6.656-1.212c9.282 3.302 16.906 27.613 18.63 43.24.896 8.213 7.866 14.918 15.92 14.918h.278s23.677 1.92 24.204-16.553c.169 17.613 51.934 16.928 51.934 16.928 7.563.053 15.117-.555 22.575-1.817a43.766 43.766 0 0 0 9.651-2.798c10.928-4.845 11.775-12.84 11.775-15.542 0-2.701-.817-11.962-11.745-16.813ZM49.539 93.535c.145.06 0 0 0 0Zm0 0 .14.042.078.03-.218-.072Z"/></mask><path d="M192.985 115.182a43.769 43.769 0 0 0-9.651-2.799 105.787 105.787 0 0 0-12.331-1.483 51.548 51.548 0 0 0 25.224-13.555 51.623 51.623 0 0 0 14.114-24.934 51.67 51.67 0 0 0-1.347-28.626A51.623 51.623 0 0 0 192.6 20.291a51.52 51.52 0 0 0-54.631-6.439 51.581 51.581 0 0 0-21.397 19.04 51.653 51.653 0 0 0-7.953 27.53c0 .86 0 1.708.061 2.55a54.098 54.098 0 0 0-25.341 19.255c-6.366-9.528-14.147-15.9-23.278-19.019-9.808-3.446-30.078-4.3-44.594 14.143-6.372 8.098-3.77 17.637 1.912 22.495a16.063 16.063 0 0 0 22.352-1.448c.211-.218.502-.539.853-.914.52-.563 1.882-2.035 2.42-2.568l.103-.085a7.806 7.806 0 0 1 6.656-1.212c9.282 3.302 16.906 27.613 18.63 43.24.896 8.213 7.866 14.918 15.92 14.918h.278s23.677 1.92 24.204-16.553c.169 17.613 51.934 16.928 51.934 16.928 7.563.053 15.117-.555 22.575-1.817a43.766 43.766 0 0 0 9.651-2.798c10.928-4.845 11.775-12.84 11.775-15.542 0-2.701-.817-11.962-11.745-16.813ZM49.539 93.535c.145.06 0 0 0 0Zm0 0 .14.042.078.03-.218-.072Z" fill="#F1F333"/><path d="m192.985 115.182.406-.914-.009-.004-.01-.004-.387.922Zm-9.651-2.799-.177.985.011.002.166-.987Zm-12.331-1.483-.21-.978.149 1.976.061-.998Zm-62.384-50.478h-1 1Zm.061 2.55.344.94.707-.26-.054-.752-.997.072ZM83.339 82.227l-.832.555.802 1.2.842-1.172-.812-.583ZM60.06 63.208l-.331.944.008.003.323-.947ZM15.467 77.351l-.786-.618.786.618Zm1.912 22.495-.65.76.65-.76Zm22.352-1.448-.718-.696-.012.013-.012.013.742.67Zm.853-.914.73.683.004-.005-.734-.678Zm2.42-2.568-.636-.772-.035.029-.032.032.703.71Zm.103-.085-.588-.81-.024.019-.024.02.636.77Zm6.656-1.212.335-.942-.035-.012-.035-.01-.265.965Zm18.63 43.24.994-.108v-.002l-.994.11Zm16.198 14.918.081-.997-.04-.003h-.04v1Zm24.204-16.553 1-.01-2-.019 1 .029Zm51.934 16.928.007-1h-.021l.014 1Zm22.575-1.817-.166-.986h-.001l.167.986Zm9.651-2.798.387.922.009-.004.01-.004-.406-.914ZM49.539 93.535l.291-.957-.608 1.905.317-.948Zm.14.042.358-.933-.033-.013-.035-.01-.29.956Zm.078.03-.317.949.676-1.882-.36.933Zm143.615 20.653a44.775 44.775 0 0 0-9.871-2.863l-.333 1.973a42.737 42.737 0 0 1 9.431 2.734l.773-1.844Zm-9.86-2.861a107.149 107.149 0 0 0-12.448-1.498l-.122 1.997c4.097.25 8.175.741 12.215 1.47l.355-1.969Zm-12.299.478a52.55 52.55 0 0 0 25.714-13.817l-1.399-1.43a50.548 50.548 0 0 1-24.735 13.292l.42 1.955Zm25.714-13.817a52.632 52.632 0 0 0 14.387-25.417l-1.946-.463a50.62 50.62 0 0 1-13.84 24.45l1.399 1.43Zm14.387-25.417a52.657 52.657 0 0 0-1.374-29.18l-1.893.645a50.657 50.657 0 0 1 1.321 28.072l1.946.463Zm-1.374-29.18a52.615 52.615 0 0 0-16.711-23.95l-1.258 1.555a50.615 50.615 0 0 1 16.076 23.04l1.893-.645Zm-16.711-23.95a52.538 52.538 0 0 0-26.898-11.336l-.234 1.987a50.54 50.54 0 0 1 25.874 10.904l1.258-1.554ZM166.331 8.178a52.52 52.52 0 0 0-28.793 4.773l.862 1.804a50.522 50.522 0 0 1 27.697-4.59l.234-1.987Zm-28.793 4.773a52.587 52.587 0 0 0-21.812 19.41l1.692 1.066A50.582 50.582 0 0 1 138.4 14.754l-.862-1.804Zm-21.812 19.41a52.658 52.658 0 0 0-8.107 28.062h2a50.657 50.657 0 0 1 7.799-26.996l-1.692-1.067Zm-8.107 28.062c0 .854 0 1.738.063 2.622l1.995-.143c-.057-.8-.058-1.612-.058-2.479h-2Zm.717 1.611a55.099 55.099 0 0 0-25.81 19.61l1.625 1.167a53.1 53.1 0 0 1 24.873-18.899l-.688-1.878ZM84.17 81.671c-6.463-9.673-14.409-16.206-23.785-19.409l-.647 1.893c8.885 3.035 16.501 9.246 22.77 18.627l1.662-1.11ZM60.393 62.265c-10.08-3.542-30.854-4.41-45.712 14.468l1.572 1.236c14.174-18.008 33.94-17.168 43.477-13.817l.663-1.887ZM14.68 76.733c-6.75 8.578-3.982 18.718 2.048 23.873l1.3-1.52c-5.334-4.56-7.77-13.5-1.776-21.117l-1.572-1.236Zm2.049 23.873a17.059 17.059 0 0 0 12.183 4.054l-.13-1.996a15.062 15.062 0 0 1-10.755-3.579l-1.298 1.521Zm12.183 4.054a17.064 17.064 0 0 0 11.56-5.591l-1.484-1.341a15.063 15.063 0 0 1-10.205 4.936l.129 1.996Zm11.535-5.565c.22-.226.534-.573.866-.928l-1.46-1.366c-.37.395-.637.69-.84.9l1.434 1.394Zm.87-.933c.53-.573 1.871-2.023 2.39-2.536L42.3 94.205c-.56.553-1.94 2.047-2.452 2.6l1.47 1.357Zm2.322-2.475.103-.084-1.272-1.544-.103.085 1.272 1.543Zm.055-.047a6.808 6.808 0 0 1 2.781-1.19l-.358-1.967c-1.3.236-2.53.762-3.599 1.539l1.176 1.618Zm2.781-1.19a6.804 6.804 0 0 1 3.022.134l.53-1.929a8.805 8.805 0 0 0-3.91-.172l.358 1.967Zm2.952.112c2.022.719 4.088 2.646 6.094 5.574 1.989 2.902 3.833 6.663 5.458 10.843 3.25 8.361 5.566 18.261 6.42 25.99l1.987-.22c-.871-7.897-3.229-17.967-6.543-26.494-1.657-4.263-3.566-8.176-5.672-11.25-2.088-3.047-4.455-5.396-7.074-6.328l-.67 1.885Zm17.971 42.405c.946 8.674 8.304 15.81 16.914 15.81v-2c-7.498 0-14.08-6.274-14.926-14.026l-1.988.216Zm16.914 15.81h.278v-2h-.278v2Zm.278-1-.08.997h.007l.016.001.057.004.211.013c.183.01.448.022.782.031.67.017 1.622.02 2.764-.036 2.278-.111 5.343-.456 8.44-1.403 3.094-.946 6.277-2.508 8.728-5.092 2.471-2.604 4.14-6.186 4.278-11.04l-1.999-.057c-.125 4.383-1.613 7.489-3.73 9.72-2.136 2.252-4.97 3.673-7.862 4.556-2.888.883-5.776 1.212-7.953 1.318a36.22 36.22 0 0 1-2.615.035 24.383 24.383 0 0 1-.952-.043l-.01-.001h-.001l-.08.997Zm23.204-16.544c.048 4.985 3.761 8.498 8.742 10.963 5.014 2.48 11.619 4.064 18.133 5.085 6.531 1.023 13.047 1.49 17.924 1.702 2.44.106 4.474.149 5.899.164.712.008 1.273.009 1.656.009l.439-.002.114-.001.029-.001h.01l-.012-1-.014-1h-.001l-.007.001h-.026l-.109.001-.427.002a180.17 180.17 0 0 1-7.464-.171c-4.834-.21-11.27-.673-17.701-1.68-6.448-1.01-12.816-2.557-17.556-4.902-4.773-2.361-7.593-5.367-7.629-9.189l-2 .019Zm52.927 17.919c7.622.053 15.233-.559 22.749-1.831l-.334-1.972a128.835 128.835 0 0 1-22.401 1.803l-.014 2Zm22.749-1.831a44.719 44.719 0 0 0 9.871-2.862l-.774-1.844a42.767 42.767 0 0 1-9.43 2.734l.333 1.972Zm9.89-2.87c5.655-2.508 8.772-5.867 10.461-9.016 1.68-3.134 1.908-5.986 1.908-7.44h-2c0 1.248-.196 3.744-1.671 6.495-1.467 2.735-4.237 5.795-9.509 8.133l.811 1.828Zm12.369-16.456c0-2.874-.883-12.641-12.339-17.727l-.811 1.828c10.399 4.617 11.15 13.371 11.15 15.899h2ZM49.154 94.458l.061.025.002.001h.001s-.537-1.307.77-1.845c-.032-.014.025.01-.01-.004l-.034-.015-.014-.006c-.057-.023.054.023-.003 0l-.002-.002c-.001 0 0 0 0 0h-.001l-.385.923-.385.923h.001l.002.001c.008.003-.006-.003.001 0 .001 0 0 0 0 0l.002.001.015.006.034.014.009.004c1.308-.537.77-1.845.77-1.845s.002 0 0 0l-.003-.002-.061-.025-.77 1.846Zm.094.033.139.043.582-1.913-.139-.043-.582 1.913Zm.07.02.08.03.718-1.867-.078-.03-.72 1.866Zm.755-1.852-.218-.073-.633 1.897.218.073.633-1.897Z" fill="#000" mask="url(#a)"/><path d="M84.059 135.106s-2.42-47.6 32.124-57.915m-61.936 1.182c24.343 8.231 29.564 56.734 29.564 56.734M37.765 79.136a22.261 22.261 0 0 1 9.209-1.944M27.497 87.284a33.437 33.437 0 0 1 4.623-4.634M159.621 96c19.627 0 35.537-15.925 35.537-35.571 0-19.646-15.91-35.572-35.537-35.572-19.626 0-35.536 15.926-35.536 35.572s15.91 35.572 35.536 35.572Z" stroke="#000" stroke-linecap="round" stroke-linejoin="round"/><path d="M159.651 137.29c15.733 0 28.487-2.394 28.487-5.348 0-2.954-12.754-5.348-28.487-5.348-15.733 0-28.487 2.394-28.487 5.348 0 2.954 12.754 5.348 28.487 5.348Z" fill="#000" stroke="#000" stroke-linecap="round" stroke-linejoin="round"/><path d="M177.599 40.023a26.324 26.324 0 0 0-24.203-5.96m29.69 12.972a25.53 25.53 0 0 0-1.676-2.695" stroke="#000" stroke-linecap="round" stroke-linejoin="round"/><path d="M172.002 77.824c2.723 4.088-1.543 6.704-1.543 6.704a23.71 23.71 0 0 1-30.594-5.486 23.754 23.754 0 0 1-4.779-10.128c5.899 3.798 7.364 3.07 13.566 2.701 6.202-.37 7.6 4.422 7.448 6.778 0 0 12.253-6.045 15.902-.57Z" fill="#000" stroke="#000" stroke-linecap="round" stroke-linejoin="round"/></svg>